<svg xmlns="http://www.w3.org/2000/svg" width="47" height="47" viewBox="0 0 47 47">
  <g id="count-icon2" transform="translate(0)">
    <path id="Path_11" data-name="Path 11" d="M.109,255.613a.918.918,0,0,0,.809.485h4.59v13.4a.918.918,0,0,0,.918.918H40.574a.918.918,0,0,0,.918-.918V256.1h4.59a.918.918,0,0,0,.764-1.427l-5.508-8.262a.918.918,0,0,0-.764-.409H37.086a.918.918,0,1,0,0,1.836h3l4.284,6.426H29.5l-4.284-6.426h3.609a.918.918,0,1,0,0-1.836H6.426a.918.918,0,0,0-.764.409L.154,254.67a.918.918,0,0,0-.046.942Zm7.235.485H17.992a.918.918,0,0,0,.764-.409l3.826-5.739v18.632H7.344Zm20.9-.409a.918.918,0,0,0,.764.409H39.656v12.484H24.418V249.95ZM6.917,247.836H21.785L17.5,254.262H2.633Z" transform="translate(0 -223.418)" fill="#fff"/>
    <path id="Path_12" data-name="Path 12" d="M105.18,2.3A4.88,4.88,0,0,0,101.049,0,5.063,5.063,0,0,0,96,5.23c0,3.174,2.569,5.259,6.458,8.415.681.553,1.386,1.125,2.134,1.748a.918.918,0,0,0,1.175,0c.749-.624,1.453-1.2,2.134-1.748,3.889-3.156,6.458-5.24,6.458-8.415A5.063,5.063,0,0,0,109.311,0,4.88,4.88,0,0,0,105.18,2.3Zm7.344,2.932c0,2.3-2.3,4.165-5.779,6.989-.506.41-1.024.831-1.565,1.277-.541-.446-1.06-.866-1.565-1.277-3.48-2.824-5.779-4.689-5.779-6.989a3.234,3.234,0,0,1,3.213-3.394c2.4,0,3.216,2.668,3.249,2.779a.918.918,0,0,0,1.764,0c.008-.028.828-2.779,3.249-2.779a3.234,3.234,0,0,1,3.213,3.394Z" transform="translate(-87.188)" fill="#fff"/>
    <path id="Path_13" data-name="Path 13" d="M312.426,86.475a.916.916,0,0,0,.6-.227c.5-.436.969-.837,1.423-1.224,2.553-2.176,4.4-3.748,4.4-6.087A3.77,3.77,0,0,0,315.18,75a3.416,3.416,0,0,0-2.754,1.38A3.415,3.415,0,0,0,309.672,75,3.77,3.77,0,0,0,306,78.936c0,2.339,1.845,3.911,4.4,6.087.455.387.924.788,1.423,1.224A.916.916,0,0,0,312.426,86.475Zm-4.59-7.538a1.948,1.948,0,0,1,1.836-2.1c1.353,0,1.847,1.659,1.87,1.739a.917.917,0,0,0,1.768,0c.02-.071.513-1.739,1.87-1.739a1.948,1.948,0,0,1,1.836,2.1c0,1.491-1.413,2.7-3.753,4.69-.272.232-.55.469-.837.716-.287-.247-.565-.484-.837-.716C309.249,81.631,307.836,80.427,307.836,78.936Z" transform="translate(-277.91 -68.115)" fill="#fff"/>
    <ellipse id="Ellipse_5" data-name="Ellipse 5" cx="1.5" cy="1" rx="1.5" ry="1" transform="translate(31.402 23)" fill="#fff"/>
  </g>
</svg>
