<svg id="count-icon4" xmlns="http://www.w3.org/2000/svg" width="50.133" height="47" viewBox="0 0 50.133 47">
  <path id="Path_18" data-name="Path 18" d="M207.75,21.875a5.875,5.875,0,1,0-5.875,5.875A5.882,5.882,0,0,0,207.75,21.875Zm-5.875,3.917a3.917,3.917,0,1,1,3.917-3.917A3.921,3.921,0,0,1,201.875,25.792Z" transform="translate(-176.808 -16)" fill="#fff"/>
  <path id="Path_19" data-name="Path 19" d="M183.625,148.729v-3.917a8.813,8.813,0,1,0-17.625,0v3.917a.979.979,0,0,0,.979.979h15.667A.979.979,0,0,0,183.625,148.729Zm-1.958-.979H167.958v-2.937a6.854,6.854,0,1,1,13.708,0Z" transform="translate(-149.746 -124.25)" fill="#fff"/>
  <path id="Path_20" data-name="Path 20" d="M7.036,144.6l4.714,2.357v5.27a.979.979,0,0,0,.979.979H23.108a.979.979,0,0,0,.979-.979V139.772a6.087,6.087,0,0,0-5.228-6.112c-.078-.015-3.784-.291-5.576-2.082L10.6,128.9a3.89,3.89,0,0,0-2.769-1.148v-7.833a3.917,3.917,0,0,0-7.833,0v13.3A12.73,12.73,0,0,0,7.036,144.6ZM1.958,119.917a1.958,1.958,0,0,1,3.917,0v8.358a3.916,3.916,0,0,0-.811,6.161l5.014,5.015a.979.979,0,1,0,1.385-1.385l-5.014-5.015a1.958,1.958,0,0,1,.731-3.231h0a1.956,1.956,0,0,1,2.036.463l2.681,2.681c1.826,1.825,4.488,2.338,6.74,2.642h.011a4.11,4.11,0,0,1,3.479,4.165V151.25H13.708v-4.9a.979.979,0,0,0-.541-.876l-5.255-2.627a10.713,10.713,0,0,1-5.954-9.634Z" transform="translate(0 -106.208)" fill="#fff"/>
  <ellipse id="Ellipse_6" data-name="Ellipse 6" cx="0.5" cy="1" rx="0.5" ry="1" transform="translate(44.167 35)" fill="#fff"/>
  <path id="Path_21" data-name="Path 21" d="M286.171,116a3.921,3.921,0,0,0-3.917,3.917v7.833a3.891,3.891,0,0,0-2.769,1.147l-2.681,2.681c-1.563,1.562-4.1,1.822-5.576,2.082A6.087,6.087,0,0,0,266,139.772v12.457a.979.979,0,0,0,.979.979h10.379a.979.979,0,0,0,.979-.979v-5.27l3.2-1.6a.979.979,0,0,0-.876-1.752l-3.746,1.873a.98.98,0,0,0-.541.876v4.9h-8.421V139.772a4.111,4.111,0,0,1,3.479-4.165h.011c2.287-.309,4.916-.819,6.741-2.643l2.681-2.681a1.956,1.956,0,0,1,2.036-.463h0a1.958,1.958,0,0,1,.732,3.231l-5.014,5.015a.979.979,0,0,0,1.385,1.385l5.014-5.015a3.916,3.916,0,0,0-.811-6.161v-8.358a1.958,1.958,0,1,1,3.917,0v13.3a10.8,10.8,0,0,1-1.307,5.143.979.979,0,0,0,1.721.935,12.764,12.764,0,0,0,1.545-6.079v-13.3A3.921,3.921,0,0,0,286.171,116Z" transform="translate(-239.954 -106.208)" fill="#fff"/>
</svg>
