<svg id="count-icon3" xmlns="http://www.w3.org/2000/svg" width="47.001" height="47" viewBox="0 0 47.001 47">
  <g id="Group_12" data-name="Group 12" transform="translate(17.634 0)">
    <g id="Group_11" data-name="Group 11">
      <path id="Path_14" data-name="Path 14" d="M23.683,27.417a.986.986,0,0,1-.721-.315L11.271,14.411a8.95,8.95,0,0,1,0-11.9,7.493,7.493,0,0,1,11.184,0l1.228,1.334L24.911,2.5a7.493,7.493,0,0,1,11.182,0,8.95,8.95,0,0,1,0,11.9L24.4,27.1a.973.973,0,0,1-.719.317ZM16.864,1.958a5.612,5.612,0,0,0-4.15,1.874,6.951,6.951,0,0,0,0,9.251L23.685,24.992,34.655,13.084a6.951,6.951,0,0,0,0-9.251,5.657,5.657,0,0,0-8.3,0L24.408,5.947a1.013,1.013,0,0,1-1.441,0L21.018,3.832a5.633,5.633,0,0,0-4.154-1.874Z" transform="translate(-9.005 0)" fill="#fff"/>
    </g>
  </g>
  <g id="Group_14" data-name="Group 14" transform="translate(0 23.5)">
    <g id="Group_13" data-name="Group 13">
      <path id="Path_15" data-name="Path 15" d="M6.854,31.583H.979A.98.98,0,0,1,0,30.6V12.979A.98.98,0,0,1,.979,12c6.66,0,10.179,2.244,10.326,2.34a.979.979,0,0,1,.413,1.061L7.8,30.845a.975.975,0,0,1-.948.738Zm-4.9-1.958H6.092L9.633,15.662a19.587,19.587,0,0,0-7.675-1.686Z" transform="translate(0 -12)" fill="#fff"/>
    </g>
  </g>
  <g id="Group_16" data-name="Group 16" transform="translate(6.423 34.271)">
    <g id="Group_15" data-name="Group 15">
      <path id="Path_16" data-name="Path 16" d="M22.315,30.229c-4.622,0-13.558-3.885-18.473-6.2a.979.979,0,1,1,.834-1.77c3.838,1.809,13.24,6.016,17.639,6.016,4.765,0,15.99-5.595,19.219-7.258a4.222,4.222,0,0,0-3.552-1.555,23.54,23.54,0,0,0-6.316,1.424,24.851,24.851,0,0,1-6.9,1.514c-4.042,0-9.412-1.935-9.637-2.017a.979.979,0,1,1,.67-1.841c.051.02,5.272,1.9,8.967,1.9a23.54,23.54,0,0,0,6.316-1.424,24.851,24.851,0,0,1,6.9-1.514c4.571,0,5.775,3.46,5.826,3.607a.983.983,0,0,1-.468,1.175C42.731,22.6,28.366,30.229,22.315,30.229Z" transform="translate(-3.28 -17.5)" fill="#fff"/>
    </g>
  </g>
  <g id="Group_18" data-name="Group 18" transform="translate(9.439 27.068)">
    <g id="Group_17" data-name="Group 17">
      <path id="Path_17" data-name="Path 17" d="M27.693,25.118a.98.98,0,0,1-.979-.979V23.16a2.9,2.9,0,0,0-2.24-2.843L5.57,15.751a.98.98,0,1,1,.46-1.905l18.9,4.563a4.851,4.851,0,0,1,3.746,4.751v.979A.98.98,0,0,1,27.693,25.118Z" transform="translate(-4.82 -13.822)" fill="#fff"/>
    </g>
  </g>
</svg>
