<svg id="count-icon1" xmlns="http://www.w3.org/2000/svg" width="55.543" height="47" viewBox="0 0 55.543 47">
  <g id="Group_6" data-name="Group 6" transform="translate(13.284 0)">
    <g id="Group_5" data-name="Group 5">
      <path id="Path_8" data-name="Path 8" d="M125.97,34.071c-2.811-2.649-7.629-3.254-11.987,1.1-4.352-4.354-9.175-3.753-11.987-1.107a7.938,7.938,0,0,0-.175,11.4l12.162,12.164,12.162-12.162A7.938,7.938,0,0,0,125.97,34.071Zm-1.335,9.884L113.983,54.609,103.332,43.957a5.8,5.8,0,0,1,.13-8.331,5.564,5.564,0,0,1,3.85-1.5c3.059,0,4.435,1.829,6.672,4.065,2.177-2.177,3.578-4.065,6.672-4.065a5.581,5.581,0,0,1,3.852,1.493A5.8,5.8,0,0,1,124.635,43.955Z" transform="translate(-99.496 -31.992)" fill="#fff"/>
    </g>
  </g>
  <g id="Group_8" data-name="Group 8" transform="translate(32.044 2.139)">
    <g id="Group_7" data-name="Group 7" transform="translate(0 0)">
      <path id="Path_9" data-name="Path 9" d="M259.848,48.009a3.637,3.637,0,0,0-3.632,3.281l-1.352,13.354a3.429,3.429,0,0,0-1.713.919l-10.79,10.045a7.255,7.255,0,0,0-2.361,5.3V92.87h12.818V87.239a3.234,3.234,0,0,1,1.028-2.343l8.107-8.182a5.314,5.314,0,0,0,1.547-3.76V51.66A3.656,3.656,0,0,0,259.848,48.009Zm1.515,24.945a3.189,3.189,0,0,1-.929,2.258l-8.081,8.156a5.349,5.349,0,0,0-1.671,3.871v3.495h-8.545V80.918a5.1,5.1,0,0,1,1.673-3.734L254.633,67.1a1.413,1.413,0,0,1,1.963,0,1.384,1.384,0,0,1,.408.983,1.367,1.367,0,0,1-.372.946L248.3,76.59l1.436,1.581,8.372-7.594a3.523,3.523,0,0,0,0-4.984,3.409,3.409,0,0,0-1.117-.754l1.348-13.33a1.515,1.515,0,0,1,3.023.152Z" transform="translate(-240 -48.009)" fill="#fff"/>
    </g>
  </g>
  <g id="Group_10" data-name="Group 10" transform="translate(0 2.139)">
    <g id="Group_9" data-name="Group 9" transform="translate(0 0)">
      <path id="Path_10" data-name="Path 10" d="M21.138,75.607,10.348,65.563a3.413,3.413,0,0,0-1.713-.919L7.283,51.29A3.651,3.651,0,0,0,0,51.66V72.954a5.3,5.3,0,0,0,1.547,3.758l8.107,8.182a3.239,3.239,0,0,1,1.028,2.346V92.87H23.5V80.905A7.25,7.25,0,0,0,21.138,75.607Zm.224,15.127H12.818V87.239a5.353,5.353,0,0,0-1.671-3.871L3.066,75.212a3.189,3.189,0,0,1-.929-2.258V51.66A1.515,1.515,0,0,1,5.159,51.5l1.348,13.33a3.524,3.524,0,0,0-1.115,5.738l8.372,7.594L15.2,76.586,6.866,69.028a1.354,1.354,0,0,1-.372-.946A1.38,1.38,0,0,1,6.9,67.1a1.413,1.413,0,0,1,1.963,0L19.69,77.18a5.1,5.1,0,0,1,1.673,3.734v9.82Z" transform="translate(0 -48.009)" fill="#fff"/>
    </g>
  </g>
</svg>
